{"title":"Newton 2017 Hindi  HDRip x264 AAC [ ssec.life ] { TaRa }.mkv","magnet":"magnet:?xt=urn:btih:a57bbc8de79352634651c4a7432b6d2f2b4f7e22&dn=Newton+2017+Hindi++HDRip+x264+AAC+%5B+ssec.life+%5D+%7B+TaRa+%7D.mkv&tr=udp%3A%2F%2Ftracker.leechers-paradise.org%3A6969&tr=udp%3A%2F%2Fzer0day.ch%3A1337&tr=udp%3A%2F%2Fopen.demonii.com%3A1337&tr=udp%3A%2F%2Ftracker.coppersurfer.tk%3A6969&tr=udp%3A%2F%2Fexodus.desync.com%3A6969","uploader":"SkTaRa","categoryP":"video","categoryS":"hd___movies","size":"727127202","seeders":"113","leechers":"130","description":"===================================================================\r\nGeneral\r\nComplete name               : Newton 2017 Hindi  HDRip x264 AAC { TaRa }.mkv\r\nFormat                      : Matroska\r\nFormat version              : Version 4 / Version 2\r\nFile size                   : 693 MiB\r\nDuration                    : 1 h 44 min\r\nOverall bit rate            : 928 kb/s\r\n===================================================================\r\nVideo\r\nID                          : 1\r\nFormat                      : AVC\r\nFormat/Info                 : Advanced Video Codec\r\nFormat profile              : <a href=\"/cdn-cgi/l/email-protection\" class=\"__cf_email__\" data-cfemail=\"ace1cdc5c2ece09e829e\">[email&#xA0;protected]</a>\r\nFormat settings, CABAC      : Yes\r\nFormat settings, ReFrames   : 4 frames\r\nCodec ID                    : V_MPEG4/ISO/AVC\r\nDuration                    : 1 h 44 min\r\nBit rate                    : 805 kb/s\r\nWidth                       : 720 pixels\r\nHeight                      : 320 pixels\r\nDisplay aspect ratio        : 2.25:1\r\nFrame rate mode             : Variable\r\nFrame rate                  : 20.165 FPS\r\nColor space                 : YUV\r\nChroma subsampling          : 4:2:0\r\nBit depth                   : 8 bits\r\nScan type                   : Progressive\r\nBits/(Pixel*Frame)          : 0.173\r\nStream size                 : 596 MiB (86%)\r\nTitle                       : www.ssec.life\r\nWriting library             : x264 core 112\r\nLanguage                    : Hindi\r\nDefault                     : Yes\r\nForced                      : No\r\n===================================================================\r\nAudio\r\nID                          : 2\r\nFormat                      : AAC\r\nFormat/Info                 : Advanced Audio Codec\r\nFormat profile              : LC\r\nCodec ID                    : A_AAC\r\nDuration                    : 1 h 44 min\r\nBit rate                    : 128 kb/s\r\nChannel(s)                  : 2 channels\r\nChannel positions           : Front: L R\r\nSampling rate               : 44.1 kHz\r\nFrame rate                  : 43.066 FPS (1024 spf)\r\nCompression mode            : Lossy\r\nStream size                 : 95.7 MiB (14%)\r\nTitle                       : www.ssec.life\r\nLanguage                    : Hindi\r\nDefault                     : Yes\r\nForced                      : No\r\n=================================================================== <a href=\"\nhttp://ssec.life/i/image/76iuz\" rel=\"nofollow\" target=\"_NEW\">\nhttp://ssec.life/i/image/76iuz</a> <a href=\"\nhttp://ssec.life/i/image/76qBT\" rel=\"nofollow\" target=\"_NEW\">\nhttp://ssec.life/i/image/76qBT</a> <a href=\"\nhttp://ssec.life/i/image/76zwl\" rel=\"nofollow\" target=\"_NEW\">\nhttp://ssec.life/i/image/76zwl</a> <a href=\"\nhttp://ssec.life/i/image/76ena\" rel=\"nofollow\" target=\"_NEW\">\nhttp://ssec.life/i/image/76ena</a> <a href=\"\nhttp://ssec.life/i/image/766ec\" rel=\"nofollow\" target=\"_NEW\">\nhttp://ssec.life/i/image/766ec</a> <a href=\"\nhttp://ssec.life/i/image/76vKP\" rel=\"nofollow\" target=\"_NEW\">\nhttp://ssec.life/i/image/76vKP</a> <a href=\"\nhttp://ssec.life/i/image/76ODV\" rel=\"nofollow\" target=\"_NEW\">\nhttp://ssec.life/i/image/76ODV</a> <a href=\"\nhttp://ssec.life/i/image/765a2\" rel=\"nofollow\" target=\"_NEW\">\nhttp://ssec.life/i/image/765a2</a> <a href=\"\nhttp://ssec.life/i/image/76N7d\" rel=\"nofollow\" target=\"_NEW\">\nhttp://ssec.life/i/image/76N7d</a> <a href=\"\nhttp://ssec.life/i/image/76BVN\" rel=\"nofollow\" target=\"_NEW\">\nhttp://ssec.life/i/image/76BVN</a> <a href=\"\nhttp://ssec.life/i/image/76UuY\" rel=\"nofollow\" target=\"_NEW\">\nhttp://ssec.life/i/image/76UuY</a> <a href=\"\nhttp://ssec.life/i/image/76mnZ\" rel=\"nofollow\" target=\"_NEW\">\nhttp://ssec.life/i/image/76mnZ</a> <a href=\"\nhttp://ssec.life/i/image/76yBv\" rel=\"nofollow\" target=\"_NEW\">\nhttp://ssec.life/i/image/76yBv</a> <a href=\"\nhttp://ssec.life/i/image/764E0\" rel=\"nofollow\" target=\"_NEW\">\nhttp://ssec.life/i/image/764E0</a>","last_updated":"2017-11-18T12:10:37.328Z","parsed":{"xt":"urn:btih:a57bbc8de79352634651c4a7432b6d2f2b4f7e22","dn":"Newton 2017 Hindi  HDRip x264 AAC [ ssec.life ] { TaRa }.mkv","tr":["udp://exodus.desync.com:6969","udp://open.demonii.com:1337","udp://tracker.coppersurfer.tk:6969","udp://tracker.leechers-paradise.org:6969","udp://zer0day.ch:1337"],"infoHash":"a57bbc8de79352634651c4a7432b6d2f2b4f7e22","infoHashBuffer":{"type":"Buffer","data":[165,123,188,141,231,147,82,99,70,81,196,167,67,43,109,47,43,79,126,34]},"name":"Newton 2017 Hindi  HDRip x264 AAC [ ssec.life ] { TaRa }.mkv","announce":["udp://exodus.desync.com:6969","udp://open.demonii.com:1337","udp://tracker.coppersurfer.tk:6969","udp://tracker.leechers-paradise.org:6969","udp://zer0day.ch:1337"],"urlList":[]}}